<svg width="120" height="120" viewBox="0 0 120 120" fill="none" xmlns="http://www.w3.org/2000/svg">
<ellipse rx="4.35211" ry="4.35113" transform="matrix(0.507364 0.861732 -0.861526 0.507713 5.95674 80.3932)" fill="#92ACC2"/>
<ellipse rx="5.80203" ry="5.80231" transform="matrix(0.742991 0.669302 -0.66896 0.743299 18.0312 95.1771)" fill="#668FB1"/>
<ellipse rx="7.25153" ry="7.2539" transform="matrix(0.923817 0.382835 -0.382532 0.923942 35.9975 106.519)" fill="#326996"/>
<ellipse cx="59.9989" cy="111.295" rx="8.70123" ry="8.70526" fill="#00447C"/>
<ellipse rx="7.25153" ry="7.2539" transform="matrix(0.923817 -0.382835 0.382532 0.923942 84.0019 106.518)" fill="#326996"/>
<ellipse rx="5.80203" ry="5.80231" transform="matrix(0.742991 -0.669302 0.66896 0.743299 101.968 95.1769)" fill="#668FB1"/>
<ellipse rx="4.35211" ry="4.35113" transform="matrix(0.507364 -0.861732 0.861526 0.507713 114.042 80.3924)" fill="#92ACC2"/>
<ellipse rx="4.35211" ry="4.35113" transform="matrix(0.507364 0.861732 -0.861526 0.507713 114.043 39.6081)" fill="#92ACC2"/>
<ellipse rx="5.80203" ry="5.80231" transform="matrix(0.742991 0.669302 -0.66896 0.743299 101.968 24.823)" fill="#668FB1"/>
<ellipse rx="7.25153" ry="7.2539" transform="matrix(0.923817 0.382835 -0.382532 0.923942 84.0027 13.482)" fill="#326996"/>
<ellipse cx="59.9988" cy="8.70526" rx="8.70123" ry="8.70526" fill="#00447C"/>
<ellipse rx="7.25153" ry="7.2539" transform="matrix(0.923817 -0.382835 0.382532 0.923942 35.997 13.4819)" fill="#326996"/>
<ellipse rx="5.80203" ry="5.80231" transform="matrix(0.742991 -0.669302 0.66896 0.743299 18.0311 24.823)" fill="#668FB1"/>
<ellipse rx="4.35211" ry="4.35113" transform="matrix(0.507364 -0.861732 0.861526 0.507713 5.95678 39.6072)" fill="#92ACC2"/>
<path d="M30.1776 50.6433H42.1136V52.6593H32.5456V59.6033H40.6096V61.5873H32.5456V69.6513H42.4336V71.6673H30.1776V50.6433ZM52.4383 72.0513C51.073 72.0513 49.8357 71.7313 48.7263 71.0913C47.6383 70.43 46.7743 69.4913 46.1343 68.2753C45.5157 67.0593 45.2063 65.6087 45.2063 63.9233C45.2063 62.2593 45.537 60.8087 46.1983 59.5713C46.881 58.334 47.7877 57.3953 48.9183 56.7553C50.049 56.094 51.2757 55.7633 52.5983 55.7633C54.2837 55.7633 55.7877 56.382 57.1103 57.6193L55.8943 59.1553C55.3823 58.686 54.8703 58.334 54.3583 58.0993C53.8463 57.8433 53.2917 57.7153 52.6943 57.7153C51.7343 57.7153 50.8703 57.982 50.1023 58.5153C49.3343 59.0273 48.7263 59.7527 48.2783 60.6913C47.8517 61.63 47.6383 62.7073 47.6383 63.9233C47.6383 65.7793 48.097 67.2727 49.0143 68.4033C49.9317 69.534 51.137 70.0993 52.6303 70.0993C53.9743 70.0993 55.233 69.566 56.4063 68.4993L57.4303 70.0673C56.7263 70.686 55.9477 71.1767 55.0943 71.5393C54.241 71.8807 53.3557 72.0513 52.4383 72.0513ZM60.9536 48.8193H63.2576V55.1553L63.1936 58.4193C64.0469 57.566 64.8789 56.9153 65.6896 56.4673C66.5002 55.998 67.3962 55.7633 68.3776 55.7633C69.9989 55.7633 71.1936 56.2753 71.9616 57.2993C72.7296 58.302 73.1136 59.806 73.1136 61.8113V71.6673H70.7776V62.0993C70.7776 60.606 70.5322 59.518 70.0416 58.8353C69.5722 58.1527 68.7936 57.8113 67.7056 57.8113C66.9376 57.8113 66.2229 58.014 65.5616 58.4193C64.9002 58.8033 64.1322 59.4327 63.2576 60.3073V71.6673H60.9536V48.8193ZM84.1548 72.0513C82.8748 72.0513 81.6908 71.7313 80.6028 71.0913C79.5148 70.43 78.6402 69.4913 77.9788 68.2753C77.3388 67.038 77.0188 65.5873 77.0188 63.9233C77.0188 62.2593 77.3388 60.8087 77.9788 59.5713C78.6402 58.334 79.5148 57.3953 80.6028 56.7553C81.6908 56.094 82.8748 55.7633 84.1548 55.7633C85.4348 55.7633 86.6188 56.094 87.7068 56.7553C88.7948 57.3953 89.6588 58.334 90.2988 59.5713C90.9602 60.8087 91.2908 62.2593 91.2908 63.9233C91.2908 65.5873 90.9602 67.038 90.2988 68.2753C89.6588 69.4913 88.7948 70.43 87.7068 71.0913C86.6188 71.7313 85.4348 72.0513 84.1548 72.0513ZM84.1548 70.0993C85.0722 70.0993 85.8828 69.8433 86.5868 69.3313C87.3122 68.8193 87.8775 68.094 88.2828 67.1553C88.6882 66.2167 88.8908 65.1393 88.8908 63.9233C88.8908 62.7073 88.6882 61.63 88.2828 60.6913C87.8775 59.7527 87.3122 59.0273 86.5868 58.5153C85.8828 57.982 85.0722 57.7153 84.1548 57.7153C83.2375 57.7153 82.4162 57.982 81.6908 58.5153C80.9868 59.0273 80.4322 59.7527 80.0268 60.6913C79.6428 61.63 79.4508 62.7073 79.4508 63.9233C79.4508 65.7793 79.8882 67.2727 80.7628 68.4033C81.6375 69.534 82.7682 70.0993 84.1548 70.0993Z" fill="#00447C"/>
</svg>
