<svg width="324" height="195" viewBox="0 0 324 195" fill="none" xmlns="http://www.w3.org/2000/svg">
<g filter="url(#filter0_d)">
<rect x="6" y="2" width="312" height="183" rx="4" fill="#182E40"/>
</g>
<path opacity="0.5" d="M16.2974 11.155C16.4944 11.0777 16.6856 10.9812 16.8711 10.8653C17.0565 10.7455 17.2284 10.5949 17.3868 10.4133H17.7228V13.5944H18.4008V14H16.4713V13.5944H17.2477V11.0797C17.2052 11.1183 17.1531 11.1589 17.0912 11.2014C17.0333 11.24 16.9676 11.2786 16.8942 11.3172C16.8247 11.3559 16.7513 11.3926 16.6741 11.4273C16.5968 11.4621 16.5215 11.4911 16.4481 11.5143L16.2974 11.155ZM18.2965 19.3288C18.2965 19.4524 18.2713 19.5722 18.2211 19.6881C18.1748 19.804 18.111 19.9179 18.0299 20.0299C17.9527 20.142 17.8638 20.2521 17.7634 20.3602C17.6629 20.4684 17.5606 20.5746 17.4563 20.6789C17.3983 20.7368 17.3307 20.8064 17.2535 20.8875C17.1762 20.9686 17.1028 21.0517 17.0333 21.1367C16.9638 21.2216 16.9058 21.3047 16.8595 21.3858C16.8131 21.4669 16.7899 21.5365 16.7899 21.5944H18.4413V22H16.2685C16.2646 21.9807 16.2627 21.9614 16.2627 21.9421C16.2627 21.9189 16.2627 21.8976 16.2627 21.8783C16.2627 21.7161 16.2897 21.5654 16.3438 21.4264C16.3979 21.2873 16.4674 21.156 16.5524 21.0324C16.6374 20.9087 16.732 20.7929 16.8363 20.6847C16.9445 20.5727 17.0507 20.4645 17.155 20.3602C17.24 20.2752 17.3211 20.1922 17.3983 20.1111C17.4795 20.0299 17.549 19.9488 17.6069 19.8677C17.6687 19.7866 17.717 19.7035 17.7518 19.6185C17.7904 19.5297 17.8097 19.4389 17.8097 19.3462C17.8097 19.2419 17.7924 19.1531 17.7576 19.0797C17.7267 19.0063 17.6823 18.9464 17.6243 18.9001C17.5702 18.8498 17.5065 18.8131 17.4331 18.79C17.3597 18.7668 17.2805 18.7552 17.1955 18.7552C17.0951 18.7552 17.0024 18.7687 16.9174 18.7958C16.8363 18.8228 16.7629 18.8556 16.6972 18.8943C16.6354 18.9329 16.5813 18.9715 16.535 19.0101C16.4886 19.0449 16.4539 19.0739 16.4307 19.0971L16.1931 18.761C16.224 18.7262 16.2704 18.6837 16.3322 18.6335C16.394 18.5833 16.4674 18.5369 16.5524 18.4945C16.6412 18.4481 16.7397 18.4095 16.8479 18.3786C16.956 18.3477 17.0719 18.3322 17.1955 18.3322C17.5702 18.3322 17.8464 18.4191 18.0241 18.593C18.2057 18.7629 18.2965 19.0082 18.2965 19.3288ZM17.0912 29.6523C17.3964 29.6523 17.6127 29.5925 17.7402 29.4727C17.8715 29.3491 17.9372 29.1849 17.9372 28.9802C17.9372 28.8489 17.9102 28.7388 17.8561 28.6499C17.802 28.5611 17.7305 28.4896 17.6417 28.4355C17.5529 28.3815 17.4505 28.3428 17.3346 28.3197C17.2187 28.2965 17.097 28.2849 16.9696 28.2849H16.8479V27.8967H17.0159C17.1009 27.8967 17.1878 27.8889 17.2767 27.8735C17.3694 27.8542 17.4524 27.8233 17.5258 27.7808C17.6031 27.7344 17.6649 27.6726 17.7112 27.5954C17.7576 27.5181 17.7808 27.4196 17.7808 27.2999C17.7808 27.1029 17.719 26.9638 17.5953 26.8827C17.4756 26.7977 17.3346 26.7552 17.1724 26.7552C17.0063 26.7552 16.8653 26.7803 16.7494 26.8305C16.6335 26.8769 16.5369 26.9252 16.4597 26.9754L16.2743 26.6103C16.3554 26.5524 16.4771 26.4925 16.6393 26.4307C16.8054 26.3651 16.9889 26.3322 17.1897 26.3322C17.379 26.3322 17.5413 26.3554 17.6765 26.4017C17.8117 26.4481 17.9218 26.5138 18.0067 26.5988C18.0956 26.6837 18.1613 26.7842 18.2037 26.9001C18.2462 27.0121 18.2675 27.1357 18.2675 27.2709C18.2675 27.4602 18.2173 27.6205 18.1168 27.7518C18.0203 27.8832 17.8947 27.9836 17.7402 28.0531C17.9256 28.1072 18.0859 28.2134 18.2211 28.3718C18.3563 28.5263 18.4239 28.733 18.4239 28.9918C18.4239 29.1463 18.3969 29.2912 18.3428 29.4264C18.2926 29.5577 18.2134 29.6717 18.1052 29.7682C18.0009 29.8648 17.8638 29.9401 17.6939 29.9942C17.5277 30.0483 17.3288 30.0753 17.097 30.0753C17.0082 30.0753 16.9155 30.0676 16.8189 30.0521C16.7262 30.0406 16.6393 30.0232 16.5582 30C16.4771 29.9807 16.4037 29.9614 16.338 29.9421C16.2762 29.9189 16.2318 29.9015 16.2047 29.8899L16.2974 29.4785C16.3592 29.5094 16.4577 29.5461 16.5929 29.5886C16.7281 29.6311 16.8942 29.6523 17.0912 29.6523ZM16.0715 35.76C16.1371 35.6055 16.226 35.4278 16.338 35.2269C16.4539 35.0261 16.5833 34.8194 16.7262 34.607C16.8691 34.3906 17.0217 34.1801 17.184 33.9754C17.3462 33.7668 17.5104 33.5794 17.6765 33.4133H18.14V35.6905H18.563V36.0845H18.14V37H17.6765V36.0845H16.0715V35.76ZM17.6765 33.9812C17.5722 34.0932 17.4659 34.2168 17.3578 34.352C17.2535 34.4872 17.1511 34.6301 17.0507 34.7808C16.9503 34.9276 16.8556 35.0782 16.7668 35.2327C16.6818 35.3873 16.6045 35.5398 16.535 35.6905H17.6765V33.9812ZM16.9406 42.7982C17.4582 42.8175 17.8348 42.9314 18.0705 43.14C18.3061 43.3486 18.4239 43.6287 18.4239 43.9802C18.4239 44.1386 18.3988 44.2854 18.3486 44.4206C18.2984 44.5558 18.2192 44.6717 18.111 44.7682C18.0067 44.8648 17.8715 44.9401 17.7054 44.9942C17.5432 45.0483 17.3501 45.0753 17.126 45.0753C17.0333 45.0753 16.9406 45.0676 16.8479 45.0521C16.759 45.0406 16.6741 45.0251 16.5929 45.0058C16.5118 44.9865 16.4404 44.9672 16.3785 44.9479C16.3167 44.9247 16.2723 44.9054 16.2453 44.8899L16.338 44.4785C16.3998 44.5094 16.4944 44.5461 16.6219 44.5886C16.7532 44.6311 16.9174 44.6523 17.1144 44.6523C17.2689 44.6523 17.3983 44.635 17.5026 44.6002C17.6069 44.5654 17.69 44.5191 17.7518 44.4611C17.8175 44.3993 17.8638 44.3298 17.8909 44.2525C17.9218 44.1753 17.9372 44.0942 17.9372 44.0092C17.9372 43.8778 17.914 43.762 17.8677 43.6615C17.8252 43.5572 17.7479 43.4703 17.6359 43.4008C17.5277 43.3312 17.3771 43.2791 17.184 43.2443C16.9947 43.2057 16.7552 43.1864 16.4655 43.1864C16.4886 43.0164 16.506 42.858 16.5176 42.7113C16.5331 42.5606 16.5447 42.4157 16.5524 42.2767C16.564 42.1338 16.5717 41.9928 16.5756 41.8537C16.5833 41.7146 16.591 41.5679 16.5987 41.4133H18.3254V41.8189H17.0159C17.0121 41.873 17.0063 41.9445 16.9985 42.0333C16.9947 42.1183 16.9889 42.2091 16.9812 42.3057C16.9734 42.4022 16.9657 42.4949 16.958 42.5838C16.9503 42.6726 16.9445 42.7441 16.9406 42.7982ZM16.1757 51.563C16.1757 51.2154 16.2221 50.9083 16.3148 50.6417C16.4114 50.3713 16.5466 50.1453 16.7204 49.9638C16.8981 49.7822 17.1125 49.6432 17.3636 49.5466C17.6147 49.45 17.8986 49.3998 18.2153 49.396L18.2559 49.8016C18.0512 49.8054 17.8638 49.8286 17.6939 49.8711C17.5277 49.9097 17.379 49.9754 17.2477 50.0681C17.1164 50.1569 17.0063 50.2728 16.9174 50.4157C16.8286 50.5587 16.761 50.7344 16.7146 50.943C16.8073 50.9005 16.9078 50.8658 17.0159 50.8387C17.1279 50.8117 17.2458 50.7982 17.3694 50.7982C17.5702 50.7982 17.7402 50.8291 17.8793 50.8909C18.0222 50.9527 18.1361 51.0357 18.2211 51.14C18.3061 51.2405 18.3679 51.3583 18.4065 51.4935C18.4452 51.6287 18.4645 51.7677 18.4645 51.9107C18.4645 52.042 18.4432 52.1772 18.4008 52.3163C18.3583 52.4515 18.2926 52.577 18.2037 52.6929C18.1149 52.8049 18.0009 52.8976 17.8619 52.971C17.7228 53.0406 17.5567 53.0753 17.3636 53.0753C16.9657 53.0753 16.6683 52.9421 16.4713 52.6755C16.2743 52.409 16.1757 52.0381 16.1757 51.563ZM17.3172 51.1922C17.1936 51.1922 17.0797 51.2038 16.9754 51.2269C16.8749 51.2501 16.7726 51.2849 16.6683 51.3312C16.6644 51.3699 16.6625 51.4085 16.6625 51.4471C16.6625 51.4819 16.6625 51.5205 16.6625 51.563C16.6625 51.7137 16.6721 51.8566 16.6914 51.9918C16.7146 52.1231 16.7513 52.2409 16.8015 52.3452C16.8556 52.4457 16.9271 52.5268 17.0159 52.5886C17.1048 52.6465 17.2187 52.6755 17.3578 52.6755C17.4737 52.6755 17.5702 52.6523 17.6475 52.606C17.7248 52.5558 17.7885 52.494 17.8387 52.4206C17.8889 52.3472 17.9237 52.2661 17.943 52.1772C17.9662 52.0845 17.9778 51.9976 17.9778 51.9165C17.9778 51.6808 17.9237 51.5012 17.8155 51.3776C17.7112 51.254 17.5451 51.1922 17.3172 51.1922ZM16.761 61C16.7803 60.7257 16.8286 60.436 16.9058 60.1309C16.9869 59.8218 17.0835 59.5244 17.1955 59.2385C17.3076 58.9488 17.4312 58.6823 17.5664 58.4389C17.7016 58.1917 17.8348 57.9889 17.9662 57.8305H16.2279V57.4133H18.4993V57.8131C18.3834 57.9483 18.2578 58.1299 18.1226 58.3578C17.9874 58.5857 17.858 58.8426 17.7344 59.1284C17.6147 59.4104 17.5104 59.7137 17.4215 60.0381C17.3327 60.3588 17.2767 60.6794 17.2535 61H16.761ZM18.4645 67.0671C18.4645 67.3684 18.3679 67.6118 18.1748 67.7972C17.9855 67.9826 17.6958 68.0753 17.3056 68.0753C17.0816 68.0753 16.8962 68.0464 16.7494 67.9884C16.6026 67.9266 16.4848 67.8493 16.3959 67.7566C16.3109 67.6601 16.2491 67.5538 16.2105 67.438C16.1757 67.3221 16.1584 67.2081 16.1584 67.0961C16.1584 66.8914 16.2144 66.7098 16.3264 66.5514C16.4384 66.3931 16.5717 66.2656 16.7262 66.169C16.3979 65.9836 16.2337 65.6997 16.2337 65.3172C16.2337 65.1859 16.2588 65.0604 16.309 64.9406C16.3592 64.8209 16.4307 64.7166 16.5234 64.6277C16.6161 64.5389 16.7281 64.4674 16.8595 64.4133C16.9947 64.3593 17.1453 64.3322 17.3114 64.3322C17.5046 64.3322 17.6687 64.3612 17.8039 64.4191C17.943 64.4771 18.055 64.5524 18.14 64.6451C18.225 64.734 18.2868 64.8344 18.3254 64.9464C18.3641 65.0546 18.3834 65.1608 18.3834 65.2651C18.3834 65.4698 18.3312 65.6475 18.2269 65.7982C18.1226 65.945 18.0029 66.0628 17.8677 66.1516C18.2656 66.3409 18.4645 66.6461 18.4645 67.0671ZM16.6219 67.1019C16.6219 67.1637 16.6335 67.2294 16.6567 67.2989C16.6799 67.3646 16.7185 67.4264 16.7726 67.4843C16.8266 67.5423 16.8981 67.5905 16.9869 67.6292C17.0758 67.6639 17.184 67.6813 17.3114 67.6813C17.4312 67.6813 17.5335 67.6659 17.6185 67.635C17.7074 67.6002 17.7788 67.5558 17.8329 67.5017C17.8909 67.4437 17.9333 67.38 17.9604 67.3105C17.9874 67.2409 18.0009 67.1714 18.0009 67.1019C18.0009 66.8817 17.9218 66.7137 17.7634 66.5978C17.605 66.478 17.3868 66.3873 17.1086 66.3255C16.9541 66.4104 16.8344 66.5167 16.7494 66.6441C16.6644 66.7716 16.6219 66.9242 16.6219 67.1019ZM17.9198 65.2651C17.9198 65.2149 17.9082 65.1589 17.8851 65.0971C17.8619 65.0314 17.8252 64.9735 17.775 64.9232C17.7286 64.8692 17.6668 64.8247 17.5896 64.79C17.5123 64.7513 17.4196 64.732 17.3114 64.732C17.1994 64.732 17.1048 64.7494 17.0275 64.7842C16.9541 64.8189 16.8923 64.8634 16.8421 64.9174C16.7919 64.9677 16.7552 65.0256 16.732 65.0913C16.7127 65.1531 16.703 65.2149 16.703 65.2767C16.703 65.4351 16.759 65.5838 16.8711 65.7228C16.9869 65.858 17.1762 65.9565 17.4389 66.0184C17.5857 65.9334 17.7016 65.8329 17.7866 65.7171C17.8754 65.6012 17.9198 65.4505 17.9198 65.2651ZM18.4529 73.8503C18.4529 74.5649 18.2791 75.1038 17.9314 75.4669C17.5838 75.8262 17.0603 76.0077 16.3612 76.0116L16.3438 75.606C16.7764 75.606 17.1241 75.521 17.3868 75.351C17.6533 75.1772 17.8291 74.8798 17.914 74.4587C17.8213 74.5012 17.719 74.536 17.6069 74.563C17.4949 74.5862 17.3771 74.5978 17.2535 74.5978C17.0488 74.5978 16.8769 74.5688 16.7378 74.5109C16.5987 74.4491 16.4867 74.3679 16.4017 74.2675C16.3167 74.1632 16.2549 74.0454 16.2163 73.9141C16.1777 73.7827 16.1584 73.6437 16.1584 73.4969C16.1584 73.3655 16.1796 73.2323 16.2221 73.0971C16.2646 72.958 16.3303 72.8325 16.4191 72.7204C16.508 72.6084 16.6219 72.5157 16.761 72.4423C16.9 72.3689 17.0661 72.3322 17.2593 72.3322C17.6533 72.3322 17.9507 72.4674 18.1516 72.7378C18.3525 73.0082 18.4529 73.3791 18.4529 73.8503ZM17.3056 74.2038C17.4292 74.2038 17.5432 74.1922 17.6475 74.169C17.7557 74.1458 17.86 74.113 17.9604 74.0705C17.9643 74.0319 17.9662 73.9952 17.9662 73.9604C17.9662 73.9256 17.9662 73.8889 17.9662 73.8503C17.9662 73.6997 17.9546 73.5567 17.9314 73.4215C17.9121 73.2863 17.8754 73.1685 17.8213 73.0681C17.7711 72.9677 17.6996 72.8885 17.6069 72.8305C17.5181 72.7687 17.4041 72.7378 17.2651 72.7378C17.1492 72.7378 17.0526 72.7629 16.9754 72.8131C16.8981 72.8595 16.8344 72.9194 16.7841 72.9928C16.7339 73.0623 16.6972 73.1415 16.6741 73.2303C16.6547 73.3192 16.6451 73.4042 16.6451 73.4853C16.6451 73.7209 16.6972 73.9005 16.8015 74.0241C16.9097 74.1439 17.0777 74.2038 17.3056 74.2038ZM14.8489 81.155C15.0459 81.0777 15.2371 80.9812 15.4225 80.8653C15.6079 80.7455 15.7798 80.5949 15.9382 80.4133H16.2743V83.5944H16.9522V84H15.0227V83.5944H15.7991V81.0797C15.7566 81.1183 15.7045 81.1589 15.6427 81.2014C15.5847 81.24 15.5191 81.2786 15.4457 81.3172C15.3761 81.3559 15.3027 81.3926 15.2255 81.4273C15.1482 81.4621 15.0729 81.4911 14.9995 81.5143L14.8489 81.155ZM19.0961 82.14C19.0961 82.2405 19.0652 82.3274 19.0034 82.4008C18.9454 82.4742 18.8682 82.5109 18.7716 82.5109C18.6712 82.5109 18.59 82.4742 18.5282 82.4008C18.4664 82.3274 18.4355 82.2405 18.4355 82.14C18.4355 82.0396 18.4664 81.9508 18.5282 81.8735C18.59 81.7962 18.6712 81.7576 18.7716 81.7576C18.8682 81.7576 18.9454 81.7962 19.0034 81.8735C19.0652 81.9508 19.0961 82.0396 19.0961 82.14ZM17.578 82.2038C17.578 81.6012 17.6803 81.1396 17.8851 80.8189C18.0937 80.4945 18.3853 80.3322 18.76 80.3322C19.1386 80.3322 19.4302 80.4945 19.6349 80.8189C19.8397 81.1396 19.942 81.6012 19.942 82.2038C19.942 82.8064 19.8397 83.2699 19.6349 83.5944C19.4302 83.915 19.1386 84.0753 18.76 84.0753C18.3853 84.0753 18.0937 83.915 17.8851 83.5944C17.6803 83.2699 17.578 82.8064 17.578 82.2038ZM19.4553 82.2038C19.4553 82.0068 19.4437 81.8213 19.4205 81.6475C19.3974 81.4698 19.3587 81.3153 19.3047 81.184C19.2506 81.0526 19.1791 80.9483 19.0903 80.8711C19.0014 80.7938 18.8913 80.7552 18.76 80.7552C18.6287 80.7552 18.5186 80.7938 18.4297 80.8711C18.3409 80.9483 18.2694 81.0526 18.2153 81.184C18.1613 81.3153 18.1226 81.4698 18.0995 81.6475C18.0763 81.8213 18.0647 82.0068 18.0647 82.2038C18.0647 82.4008 18.0763 82.5881 18.0995 82.7658C18.1226 82.9396 18.1613 83.0922 18.2153 83.2236C18.2694 83.3549 18.3409 83.4592 18.4297 83.5365C18.5186 83.6137 18.6287 83.6523 18.76 83.6523C18.8913 83.6523 19.0014 83.6137 19.0903 83.5365C19.1791 83.4592 19.2506 83.3549 19.3047 83.2236C19.3587 83.0922 19.3974 82.9396 19.4205 82.7658C19.4437 82.5881 19.4553 82.4008 19.4553 82.2038ZM14.8489 89.155C15.0459 89.0777 15.2371 88.9812 15.4225 88.8653C15.6079 88.7455 15.7798 88.5949 15.9382 88.4133H16.2743V91.5944H16.9522V92H15.0227V91.5944H15.7991V89.0797C15.7566 89.1183 15.7045 89.1589 15.6427 89.2014C15.5847 89.24 15.5191 89.2786 15.4457 89.3172C15.3761 89.3559 15.3027 89.3926 15.2255 89.4273C15.1482 89.4621 15.0729 89.4911 14.9995 89.5143L14.8489 89.155ZM17.746 89.155C17.943 89.0777 18.1342 88.9812 18.3196 88.8653C18.5051 88.7455 18.6769 88.5949 18.8353 88.4133H19.1714V91.5944H19.8493V92H17.9198V91.5944H18.6963V89.0797C18.6538 89.1183 18.6016 89.1589 18.5398 89.2014C18.4819 89.24 18.4162 89.2786 18.3428 89.3172C18.2733 89.3559 18.1999 89.3926 18.1226 89.4273C18.0454 89.4621 17.97 89.4911 17.8967 89.5143L17.746 89.155ZM14.8489 96.155C15.0459 96.0777 15.2371 95.9812 15.4225 95.8653C15.6079 95.7455 15.7798 95.5949 15.9382 95.4133H16.2743V98.5944H16.9522V99H15.0227V98.5944H15.7991V96.0797C15.7566 96.1183 15.7045 96.1589 15.6427 96.2014C15.5847 96.24 15.5191 96.2786 15.4457 96.3172C15.3761 96.3559 15.3027 96.3926 15.2255 96.4273C15.1482 96.4621 15.0729 96.4911 14.9995 96.5143L14.8489 96.155ZM19.745 96.3288C19.745 96.4524 19.7199 96.5722 19.6697 96.6881C19.6233 96.804 19.5596 96.9179 19.4785 97.0299C19.4012 97.142 19.3124 97.2521 19.212 97.3602C19.1115 97.4684 19.0092 97.5746 18.9049 97.6789C18.8469 97.7368 18.7793 97.8064 18.7021 97.8875C18.6248 97.9686 18.5514 98.0517 18.4819 98.1367C18.4123 98.2216 18.3544 98.3047 18.308 98.3858C18.2617 98.4669 18.2385 98.5365 18.2385 98.5944H19.8899V99H17.717C17.7132 98.9807 17.7112 98.9614 17.7112 98.9421C17.7112 98.9189 17.7112 98.8976 17.7112 98.8783C17.7112 98.7161 17.7383 98.5654 17.7924 98.4264C17.8464 98.2873 17.916 98.156 18.0009 98.0324C18.0859 97.9087 18.1806 97.7929 18.2849 97.6847C18.393 97.5727 18.4993 97.4645 18.6036 97.3602C18.6885 97.2752 18.7697 97.1922 18.8469 97.1111C18.928 97.0299 18.9976 96.9488 19.0555 96.8677C19.1173 96.7866 19.1656 96.7035 19.2004 96.6185C19.239 96.5297 19.2583 96.4389 19.2583 96.3462C19.2583 96.2419 19.2409 96.1531 19.2062 96.0797C19.1753 96.0063 19.1308 95.9464 19.0729 95.9001C19.0188 95.8498 18.9551 95.8131 18.8817 95.79C18.8083 95.7668 18.7291 95.7552 18.6441 95.7552C18.5437 95.7552 18.451 95.7687 18.366 95.7958C18.2849 95.8228 18.2115 95.8556 18.1458 95.8943C18.084 95.9329 18.0299 95.9715 17.9836 96.0101C17.9372 96.0449 17.9024 96.0739 17.8793 96.0971L17.6417 95.761C17.6726 95.7262 17.719 95.6837 17.7808 95.6335C17.8426 95.5833 17.916 95.5369 18.0009 95.4945C18.0898 95.4481 18.1883 95.4095 18.2965 95.3786C18.4046 95.3477 18.5205 95.3322 18.6441 95.3322C19.0188 95.3322 19.295 95.4191 19.4727 95.593C19.6543 95.7629 19.745 96.0082 19.745 96.3288ZM14.8489 104.155C15.0459 104.078 15.2371 103.981 15.4225 103.865C15.6079 103.746 15.7798 103.595 15.9382 103.413H16.2743V106.594H16.9522V107H15.0227V106.594H15.7991V104.08C15.7566 104.118 15.7045 104.159 15.6427 104.201C15.5847 104.24 15.5191 104.279 15.4457 104.317C15.3761 104.356 15.3027 104.393 15.2255 104.427C15.1482 104.462 15.0729 104.491 14.9995 104.514L14.8489 104.155ZM18.5398 106.652C18.845 106.652 19.0613 106.592 19.1888 106.473C19.3201 106.349 19.3858 106.185 19.3858 105.98C19.3858 105.849 19.3587 105.739 19.3047 105.65C19.2506 105.561 19.1791 105.49 19.0903 105.436C19.0014 105.381 18.8991 105.343 18.7832 105.32C18.6673 105.296 18.5456 105.285 18.4181 105.285H18.2965V104.897H18.4645C18.5495 104.897 18.6364 104.889 18.7252 104.873C18.8179 104.854 18.901 104.823 18.9744 104.781C19.0516 104.734 19.1135 104.673 19.1598 104.595C19.2062 104.518 19.2293 104.42 19.2293 104.3C19.2293 104.103 19.1675 103.964 19.0439 103.883C18.9242 103.798 18.7832 103.755 18.6209 103.755C18.4548 103.755 18.3138 103.78 18.198 103.831C18.0821 103.877 17.9855 103.925 17.9082 103.975L17.7228 103.61C17.8039 103.552 17.9256 103.493 18.0879 103.431C18.254 103.365 18.4375 103.332 18.6383 103.332C18.8276 103.332 18.9898 103.355 19.125 103.402C19.2602 103.448 19.3703 103.514 19.4553 103.599C19.5442 103.684 19.6098 103.784 19.6523 103.9C19.6948 104.012 19.7161 104.136 19.7161 104.271C19.7161 104.46 19.6658 104.62 19.5654 104.752C19.4688 104.883 19.3433 104.984 19.1888 105.053C19.3742 105.107 19.5345 105.213 19.6697 105.372C19.8049 105.526 19.8725 105.733 19.8725 105.992C19.8725 106.146 19.8455 106.291 19.7914 106.426C19.7412 106.558 19.662 106.672 19.5538 106.768C19.4495 106.865 19.3124 106.94 19.1424 106.994C18.9763 107.048 18.7774 107.075 18.5456 107.075C18.4568 107.075 18.3641 107.068 18.2675 107.052C18.1748 107.041 18.0879 107.023 18.0067 107C17.9256 106.981 17.8522 106.961 17.7866 106.942C17.7248 106.919 17.6803 106.901 17.6533 106.89L17.746 106.479C17.8078 106.509 17.9063 106.546 18.0415 106.589C18.1767 106.631 18.3428 106.652 18.5398 106.652ZM14.8489 112.155C15.0459 112.078 15.2371 111.981 15.4225 111.865C15.6079 111.746 15.7798 111.595 15.9382 111.413H16.2743V114.594H16.9522V115H15.0227V114.594H15.7991V112.08C15.7566 112.118 15.7045 112.159 15.6427 112.201C15.5847 112.24 15.5191 112.279 15.4457 112.317C15.3761 112.356 15.3027 112.393 15.2255 112.427C15.1482 112.462 15.0729 112.491 14.9995 112.514L14.8489 112.155ZM17.52 113.76C17.5857 113.606 17.6745 113.428 17.7866 113.227C17.9024 113.026 18.0319 112.819 18.1748 112.607C18.3177 112.391 18.4703 112.18 18.6325 111.975C18.7948 111.767 18.9589 111.579 19.125 111.413H19.5886V113.69H20.0116V114.085H19.5886V115H19.125V114.085H17.52V113.76ZM19.125 111.981C19.0207 112.093 18.9145 112.217 18.8064 112.352C18.7021 112.487 18.5997 112.63 18.4993 112.781C18.3988 112.928 18.3042 113.078 18.2153 113.233C18.1304 113.387 18.0531 113.54 17.9836 113.69H19.125V111.981ZM14.8489 119.155C15.0459 119.078 15.2371 118.981 15.4225 118.865C15.6079 118.746 15.7798 118.595 15.9382 118.413H16.2743V121.594H16.9522V122H15.0227V121.594H15.7991V119.08C15.7566 119.118 15.7045 119.159 15.6427 119.201C15.5847 119.24 15.5191 119.279 15.4457 119.317C15.3761 119.356 15.3027 119.393 15.2255 119.427C15.1482 119.462 15.0729 119.491 14.9995 119.514L14.8489 119.155ZM18.3892 119.798C18.9068 119.817 19.2834 119.931 19.5191 120.14C19.7547 120.349 19.8725 120.629 19.8725 120.98C19.8725 121.139 19.8474 121.285 19.7972 121.421C19.747 121.556 19.6678 121.672 19.5596 121.768C19.4553 121.865 19.3201 121.94 19.154 121.994C18.9918 122.048 18.7986 122.075 18.5746 122.075C18.4819 122.075 18.3892 122.068 18.2965 122.052C18.2076 122.041 18.1226 122.025 18.0415 122.006C17.9604 121.986 17.8889 121.967 17.8271 121.948C17.7653 121.925 17.7209 121.905 17.6939 121.89L17.7866 121.479C17.8484 121.509 17.943 121.546 18.0705 121.589C18.2018 121.631 18.366 121.652 18.563 121.652C18.7175 121.652 18.8469 121.635 18.9512 121.6C19.0555 121.565 19.1386 121.519 19.2004 121.461C19.266 121.399 19.3124 121.33 19.3394 121.253C19.3703 121.175 19.3858 121.094 19.3858 121.009C19.3858 120.878 19.3626 120.762 19.3163 120.662C19.2738 120.557 19.1965 120.47 19.0845 120.401C18.9763 120.331 18.8257 120.279 18.6325 120.244C18.4432 120.206 18.2037 120.186 17.914 120.186C17.9372 120.016 17.9546 119.858 17.9662 119.711C17.9816 119.561 17.9932 119.416 18.0009 119.277C18.0125 119.134 18.0203 118.993 18.0241 118.854C18.0319 118.715 18.0396 118.568 18.0473 118.413H19.774V118.819H18.4645C18.4606 118.873 18.4548 118.944 18.4471 119.033C18.4432 119.118 18.4375 119.209 18.4297 119.306C18.422 119.402 18.4143 119.495 18.4065 119.584C18.3988 119.673 18.393 119.744 18.3892 119.798ZM14.8489 127.155C15.0459 127.078 15.2371 126.981 15.4225 126.865C15.6079 126.746 15.7798 126.595 15.9382 126.413H16.2743V129.594H16.9522V130H15.0227V129.594H15.7991V127.08C15.7566 127.118 15.7045 127.159 15.6427 127.201C15.5847 127.24 15.5191 127.279 15.4457 127.317C15.3761 127.356 15.3027 127.393 15.2255 127.427C15.1482 127.462 15.0729 127.491 14.9995 127.514L14.8489 127.155ZM17.6243 128.563C17.6243 128.215 17.6707 127.908 17.7634 127.642C17.86 127.371 17.9952 127.145 18.169 126.964C18.3467 126.782 18.5611 126.643 18.8121 126.547C19.0632 126.45 19.3472 126.4 19.6639 126.396L19.7045 126.802C19.4997 126.805 19.3124 126.829 19.1424 126.871C18.9763 126.91 18.8276 126.975 18.6963 127.068C18.5649 127.157 18.4548 127.273 18.366 127.416C18.2771 127.559 18.2095 127.734 18.1632 127.943C18.2559 127.901 18.3563 127.866 18.4645 127.839C18.5765 127.812 18.6943 127.798 18.8179 127.798C19.0188 127.798 19.1888 127.829 19.3278 127.891C19.4708 127.953 19.5847 128.036 19.6697 128.14C19.7547 128.24 19.8165 128.358 19.8551 128.493C19.8937 128.629 19.9131 128.768 19.9131 128.911C19.9131 129.042 19.8918 129.177 19.8493 129.316C19.8068 129.451 19.7412 129.577 19.6523 129.693C19.5635 129.805 19.4495 129.898 19.3105 129.971C19.1714 130.041 19.0053 130.075 18.8121 130.075C18.4143 130.075 18.1168 129.942 17.9198 129.676C17.7228 129.409 17.6243 129.038 17.6243 128.563ZM18.7658 128.192C18.6422 128.192 18.5282 128.204 18.4239 128.227C18.3235 128.25 18.2211 128.285 18.1168 128.331C18.113 128.37 18.111 128.409 18.111 128.447C18.111 128.482 18.111 128.521 18.111 128.563C18.111 128.714 18.1207 128.857 18.14 128.992C18.1632 129.123 18.1999 129.241 18.2501 129.345C18.3042 129.446 18.3756 129.527 18.4645 129.589C18.5533 129.647 18.6673 129.676 18.8064 129.676C18.9222 129.676 19.0188 129.652 19.0961 129.606C19.1733 129.556 19.2371 129.494 19.2873 129.421C19.3375 129.347 19.3723 129.266 19.3916 129.177C19.4148 129.085 19.4263 128.998 19.4263 128.916C19.4263 128.681 19.3723 128.501 19.2641 128.378C19.1598 128.254 18.9937 128.192 18.7658 128.192ZM14.8489 135.155C15.0459 135.078 15.2371 134.981 15.4225 134.865C15.6079 134.746 15.7798 134.595 15.9382 134.413H16.2743V137.594H16.9522V138H15.0227V137.594H15.7991V135.08C15.7566 135.118 15.7045 135.159 15.6427 135.201C15.5847 135.24 15.5191 135.279 15.4457 135.317C15.3761 135.356 15.3027 135.393 15.2255 135.427C15.1482 135.462 15.0729 135.491 14.9995 135.514L14.8489 135.155ZM18.2095 138C18.2289 137.726 18.2771 137.436 18.3544 137.131C18.4355 136.822 18.5321 136.524 18.6441 136.239C18.7561 135.949 18.8797 135.682 19.0149 135.439C19.1501 135.192 19.2834 134.989 19.4148 134.831H17.6765V134.413H19.9478V134.813C19.8319 134.948 19.7064 135.13 19.5712 135.358C19.436 135.586 19.3066 135.843 19.183 136.128C19.0632 136.41 18.9589 136.714 18.8701 137.038C18.7812 137.359 18.7252 137.679 18.7021 138H18.2095ZM14.8489 143.155C15.0459 143.078 15.2371 142.981 15.4225 142.865C15.6079 142.746 15.7798 142.595 15.9382 142.413H16.2743V145.594H16.9522V146H15.0227V145.594H15.7991V143.08C15.7566 143.118 15.7045 143.159 15.6427 143.201C15.5847 143.24 15.5191 143.279 15.4457 143.317C15.3761 143.356 15.3027 143.393 15.2255 143.427C15.1482 143.462 15.0729 143.491 14.9995 143.514L14.8489 143.155ZM19.9131 145.067C19.9131 145.368 19.8165 145.612 19.6233 145.797C19.4341 145.983 19.1444 146.075 18.7542 146.075C18.5302 146.075 18.3447 146.046 18.198 145.988C18.0512 145.927 17.9333 145.849 17.8445 145.757C17.7595 145.66 17.6977 145.554 17.6591 145.438C17.6243 145.322 17.6069 145.208 17.6069 145.096C17.6069 144.891 17.6629 144.71 17.775 144.551C17.887 144.393 18.0203 144.266 18.1748 144.169C17.8464 143.984 17.6823 143.7 17.6823 143.317C17.6823 143.186 17.7074 143.06 17.7576 142.941C17.8078 142.821 17.8793 142.717 17.972 142.628C18.0647 142.539 18.1767 142.467 18.308 142.413C18.4432 142.359 18.5939 142.332 18.76 142.332C18.9531 142.332 19.1173 142.361 19.2525 142.419C19.3916 142.477 19.5036 142.552 19.5886 142.645C19.6736 142.734 19.7354 142.834 19.774 142.946C19.8126 143.055 19.8319 143.161 19.8319 143.265C19.8319 143.47 19.7798 143.648 19.6755 143.798C19.5712 143.945 19.4515 144.063 19.3163 144.152C19.7141 144.341 19.9131 144.646 19.9131 145.067ZM18.0705 145.102C18.0705 145.164 18.0821 145.229 18.1052 145.299C18.1284 145.365 18.1671 145.426 18.2211 145.484C18.2752 145.542 18.3467 145.591 18.4355 145.629C18.5244 145.664 18.6325 145.681 18.76 145.681C18.8797 145.681 18.9821 145.666 19.0671 145.635C19.1559 145.6 19.2274 145.556 19.2815 145.502C19.3394 145.444 19.3819 145.38 19.409 145.31C19.436 145.241 19.4495 145.171 19.4495 145.102C19.4495 144.882 19.3703 144.714 19.212 144.598C19.0536 144.478 18.8353 144.387 18.5572 144.325C18.4027 144.41 18.2829 144.517 18.198 144.644C18.113 144.772 18.0705 144.924 18.0705 145.102ZM19.3684 143.265C19.3684 143.215 19.3568 143.159 19.3336 143.097C19.3105 143.031 19.2738 142.973 19.2235 142.923C19.1772 142.869 19.1154 142.825 19.0381 142.79C18.9609 142.751 18.8682 142.732 18.76 142.732C18.648 142.732 18.5533 142.749 18.4761 142.784C18.4027 142.819 18.3409 142.863 18.2907 142.917C18.2404 142.968 18.2037 143.026 18.1806 143.091C18.1613 143.153 18.1516 143.215 18.1516 143.277C18.1516 143.435 18.2076 143.584 18.3196 143.723C18.4355 143.858 18.6248 143.957 18.8875 144.018C19.0343 143.933 19.1501 143.833 19.2351 143.717C19.324 143.601 19.3684 143.451 19.3684 143.265ZM14.8489 150.155C15.0459 150.078 15.2371 149.981 15.4225 149.865C15.6079 149.746 15.7798 149.595 15.9382 149.413H16.2743V152.594H16.9522V153H15.0227V152.594H15.7991V150.08C15.7566 150.118 15.7045 150.159 15.6427 150.201C15.5847 150.24 15.5191 150.279 15.4457 150.317C15.3761 150.356 15.3027 150.393 15.2255 150.427C15.1482 150.462 15.0729 150.491 14.9995 150.514L14.8489 150.155ZM19.9015 150.85C19.9015 151.565 19.7276 152.104 19.38 152.467C19.0323 152.826 18.5089 153.008 17.8097 153.012L17.7924 152.606C18.225 152.606 18.5727 152.521 18.8353 152.351C19.1019 152.177 19.2776 151.88 19.3626 151.459C19.2699 151.501 19.1675 151.536 19.0555 151.563C18.9435 151.586 18.8257 151.598 18.7021 151.598C18.4973 151.598 18.3254 151.569 18.1864 151.511C18.0473 151.449 17.9353 151.368 17.8503 151.268C17.7653 151.163 17.7035 151.045 17.6649 150.914C17.6263 150.783 17.6069 150.644 17.6069 150.497C17.6069 150.366 17.6282 150.232 17.6707 150.097C17.7132 149.958 17.7788 149.832 17.8677 149.72C17.9565 149.608 18.0705 149.516 18.2095 149.442C18.3486 149.369 18.5147 149.332 18.7079 149.332C19.1019 149.332 19.3993 149.467 19.6002 149.738C19.801 150.008 19.9015 150.379 19.9015 150.85ZM18.7542 151.204C18.8778 151.204 18.9918 151.192 19.0961 151.169C19.2042 151.146 19.3085 151.113 19.409 151.071C19.4128 151.032 19.4148 150.995 19.4148 150.96C19.4148 150.926 19.4148 150.889 19.4148 150.85C19.4148 150.7 19.4032 150.557 19.38 150.422C19.3607 150.286 19.324 150.169 19.2699 150.068C19.2197 149.968 19.1482 149.888 19.0555 149.831C18.9667 149.769 18.8527 149.738 18.7136 149.738C18.5978 149.738 18.5012 149.763 18.4239 149.813C18.3467 149.859 18.2829 149.919 18.2327 149.993C18.1825 150.062 18.1458 150.141 18.1226 150.23C18.1033 150.319 18.0937 150.404 18.0937 150.485C18.0937 150.721 18.1458 150.901 18.2501 151.024C18.3583 151.144 18.5263 151.204 18.7542 151.204ZM16.8479 158.329C16.8479 158.452 16.8228 158.572 16.7726 158.688C16.7262 158.804 16.6625 158.918 16.5813 159.03C16.5041 159.142 16.4152 159.252 16.3148 159.36C16.2144 159.468 16.112 159.575 16.0077 159.679C15.9498 159.737 15.8822 159.806 15.8049 159.887C15.7277 159.969 15.6543 160.052 15.5847 160.137C15.5152 160.222 15.4573 160.305 15.4109 160.386C15.3645 160.467 15.3414 160.536 15.3414 160.594H16.9927V161H14.8199C14.816 160.981 14.8141 160.961 14.8141 160.942C14.8141 160.919 14.8141 160.898 14.8141 160.878C14.8141 160.716 14.8411 160.565 14.8952 160.426C14.9493 160.287 15.0188 160.156 15.1038 160.032C15.1888 159.909 15.2834 159.793 15.3877 159.685C15.4959 159.573 15.6021 159.465 15.7064 159.36C15.7914 159.275 15.8725 159.192 15.9498 159.111C16.0309 159.03 16.1004 158.949 16.1584 158.868C16.2202 158.787 16.2685 158.704 16.3032 158.619C16.3419 158.53 16.3612 158.439 16.3612 158.346C16.3612 158.242 16.3438 158.153 16.309 158.08C16.2781 158.006 16.2337 157.946 16.1757 157.9C16.1217 157.85 16.0579 157.813 15.9845 157.79C15.9111 157.767 15.832 157.755 15.747 157.755C15.6465 157.755 15.5538 157.769 15.4688 157.796C15.3877 157.823 15.3143 157.856 15.2487 157.894C15.1869 157.933 15.1328 157.972 15.0864 158.01C15.0401 158.045 15.0053 158.074 14.9821 158.097L14.7446 157.761C14.7755 157.726 14.8218 157.684 14.8836 157.634C14.9454 157.583 15.0188 157.537 15.1038 157.494C15.1927 157.448 15.2912 157.409 15.3993 157.379C15.5075 157.348 15.6234 157.332 15.747 157.332C16.1217 157.332 16.3979 157.419 16.5756 157.593C16.7571 157.763 16.8479 158.008 16.8479 158.329ZM19.0961 159.14C19.0961 159.24 19.0652 159.327 19.0034 159.401C18.9454 159.474 18.8682 159.511 18.7716 159.511C18.6712 159.511 18.59 159.474 18.5282 159.401C18.4664 159.327 18.4355 159.24 18.4355 159.14C18.4355 159.04 18.4664 158.951 18.5282 158.873C18.59 158.796 18.6712 158.758 18.7716 158.758C18.8682 158.758 18.9454 158.796 19.0034 158.873C19.0652 158.951 19.0961 159.04 19.0961 159.14ZM17.578 159.204C17.578 158.601 17.6803 158.14 17.8851 157.819C18.0937 157.494 18.3853 157.332 18.76 157.332C19.1386 157.332 19.4302 157.494 19.6349 157.819C19.8397 158.14 19.942 158.601 19.942 159.204C19.942 159.806 19.8397 160.27 19.6349 160.594C19.4302 160.915 19.1386 161.075 18.76 161.075C18.3853 161.075 18.0937 160.915 17.8851 160.594C17.6803 160.27 17.578 159.806 17.578 159.204ZM19.4553 159.204C19.4553 159.007 19.4437 158.821 19.4205 158.648C19.3974 158.47 19.3587 158.315 19.3047 158.184C19.2506 158.053 19.1791 157.948 19.0903 157.871C19.0014 157.794 18.8913 157.755 18.76 157.755C18.6287 157.755 18.5186 157.794 18.4297 157.871C18.3409 157.948 18.2694 158.053 18.2153 158.184C18.1613 158.315 18.1226 158.47 18.0995 158.648C18.0763 158.821 18.0647 159.007 18.0647 159.204C18.0647 159.401 18.0763 159.588 18.0995 159.766C18.1226 159.94 18.1613 160.092 18.2153 160.224C18.2694 160.355 18.3409 160.459 18.4297 160.536C18.5186 160.614 18.6287 160.652 18.76 160.652C18.8913 160.652 19.0014 160.614 19.0903 160.536C19.1791 160.459 19.2506 160.355 19.3047 160.224C19.3587 160.092 19.3974 159.94 19.4205 159.766C19.4437 159.588 19.4553 159.401 19.4553 159.204ZM16.8479 166.329C16.8479 166.452 16.8228 166.572 16.7726 166.688C16.7262 166.804 16.6625 166.918 16.5813 167.03C16.5041 167.142 16.4152 167.252 16.3148 167.36C16.2144 167.468 16.112 167.575 16.0077 167.679C15.9498 167.737 15.8822 167.806 15.8049 167.887C15.7277 167.969 15.6543 168.052 15.5847 168.137C15.5152 168.222 15.4573 168.305 15.4109 168.386C15.3645 168.467 15.3414 168.536 15.3414 168.594H16.9927V169H14.8199C14.816 168.981 14.8141 168.961 14.8141 168.942C14.8141 168.919 14.8141 168.898 14.8141 168.878C14.8141 168.716 14.8411 168.565 14.8952 168.426C14.9493 168.287 15.0188 168.156 15.1038 168.032C15.1888 167.909 15.2834 167.793 15.3877 167.685C15.4959 167.573 15.6021 167.465 15.7064 167.36C15.7914 167.275 15.8725 167.192 15.9498 167.111C16.0309 167.03 16.1004 166.949 16.1584 166.868C16.2202 166.787 16.2685 166.704 16.3032 166.619C16.3419 166.53 16.3612 166.439 16.3612 166.346C16.3612 166.242 16.3438 166.153 16.309 166.08C16.2781 166.006 16.2337 165.946 16.1757 165.9C16.1217 165.85 16.0579 165.813 15.9845 165.79C15.9111 165.767 15.832 165.755 15.747 165.755C15.6465 165.755 15.5538 165.769 15.4688 165.796C15.3877 165.823 15.3143 165.856 15.2487 165.894C15.1869 165.933 15.1328 165.972 15.0864 166.01C15.0401 166.045 15.0053 166.074 14.9821 166.097L14.7446 165.761C14.7755 165.726 14.8218 165.684 14.8836 165.634C14.9454 165.583 15.0188 165.537 15.1038 165.494C15.1927 165.448 15.2912 165.409 15.3993 165.379C15.5075 165.348 15.6234 165.332 15.747 165.332C16.1217 165.332 16.3979 165.419 16.5756 165.593C16.7571 165.763 16.8479 166.008 16.8479 166.329ZM17.746 166.155C17.943 166.078 18.1342 165.981 18.3196 165.865C18.5051 165.746 18.6769 165.595 18.8353 165.413H19.1714V168.594H19.8493V169H17.9198V168.594H18.6963V166.08C18.6538 166.118 18.6016 166.159 18.5398 166.201C18.4819 166.24 18.4162 166.279 18.3428 166.317C18.2733 166.356 18.1999 166.393 18.1226 166.427C18.0454 166.462 17.97 166.491 17.8967 166.514L17.746 166.155ZM16.8479 174.329C16.8479 174.452 16.8228 174.572 16.7726 174.688C16.7262 174.804 16.6625 174.918 16.5813 175.03C16.5041 175.142 16.4152 175.252 16.3148 175.36C16.2144 175.468 16.112 175.575 16.0077 175.679C15.9498 175.737 15.8822 175.806 15.8049 175.887C15.7277 175.969 15.6543 176.052 15.5847 176.137C15.5152 176.222 15.4573 176.305 15.4109 176.386C15.3645 176.467 15.3414 176.536 15.3414 176.594H16.9927V177H14.8199C14.816 176.981 14.8141 176.961 14.8141 176.942C14.8141 176.919 14.8141 176.898 14.8141 176.878C14.8141 176.716 14.8411 176.565 14.8952 176.426C14.9493 176.287 15.0188 176.156 15.1038 176.032C15.1888 175.909 15.2834 175.793 15.3877 175.685C15.4959 175.573 15.6021 175.465 15.7064 175.36C15.7914 175.275 15.8725 175.192 15.9498 175.111C16.0309 175.03 16.1004 174.949 16.1584 174.868C16.2202 174.787 16.2685 174.704 16.3032 174.619C16.3419 174.53 16.3612 174.439 16.3612 174.346C16.3612 174.242 16.3438 174.153 16.309 174.08C16.2781 174.006 16.2337 173.946 16.1757 173.9C16.1217 173.85 16.0579 173.813 15.9845 173.79C15.9111 173.767 15.832 173.755 15.747 173.755C15.6465 173.755 15.5538 173.769 15.4688 173.796C15.3877 173.823 15.3143 173.856 15.2487 173.894C15.1869 173.933 15.1328 173.972 15.0864 174.01C15.0401 174.045 15.0053 174.074 14.9821 174.097L14.7446 173.761C14.7755 173.726 14.8218 173.684 14.8836 173.634C14.9454 173.583 15.0188 173.537 15.1038 173.494C15.1927 173.448 15.2912 173.409 15.3993 173.379C15.5075 173.348 15.6234 173.332 15.747 173.332C16.1217 173.332 16.3979 173.419 16.5756 173.593C16.7571 173.763 16.8479 174.008 16.8479 174.329ZM19.745 174.329C19.745 174.452 19.7199 174.572 19.6697 174.688C19.6233 174.804 19.5596 174.918 19.4785 175.03C19.4012 175.142 19.3124 175.252 19.212 175.36C19.1115 175.468 19.0092 175.575 18.9049 175.679C18.8469 175.737 18.7793 175.806 18.7021 175.887C18.6248 175.969 18.5514 176.052 18.4819 176.137C18.4123 176.222 18.3544 176.305 18.308 176.386C18.2617 176.467 18.2385 176.536 18.2385 176.594H19.8899V177H17.717C17.7132 176.981 17.7112 176.961 17.7112 176.942C17.7112 176.919 17.7112 176.898 17.7112 176.878C17.7112 176.716 17.7383 176.565 17.7924 176.426C17.8464 176.287 17.916 176.156 18.0009 176.032C18.0859 175.909 18.1806 175.793 18.2849 175.685C18.393 175.573 18.4993 175.465 18.6036 175.36C18.6885 175.275 18.7697 175.192 18.8469 175.111C18.928 175.03 18.9976 174.949 19.0555 174.868C19.1173 174.787 19.1656 174.704 19.2004 174.619C19.239 174.53 19.2583 174.439 19.2583 174.346C19.2583 174.242 19.2409 174.153 19.2062 174.08C19.1753 174.006 19.1308 173.946 19.0729 173.9C19.0188 173.85 18.9551 173.813 18.8817 173.79C18.8083 173.767 18.7291 173.755 18.6441 173.755C18.5437 173.755 18.451 173.769 18.366 173.796C18.2849 173.823 18.2115 173.856 18.1458 173.894C18.084 173.933 18.0299 173.972 17.9836 174.01C17.9372 174.045 17.9024 174.074 17.8793 174.097L17.6417 173.761C17.6726 173.726 17.719 173.684 17.7808 173.634C17.8426 173.583 17.916 173.537 18.0009 173.494C18.0898 173.448 18.1883 173.409 18.2965 173.379C18.4046 173.348 18.5205 173.332 18.6441 173.332C19.0188 173.332 19.295 173.419 19.4727 173.593C19.6543 173.763 19.745 174.008 19.745 174.329Z" fill="white"/>
<rect x="29" y="11" width="38" height="4" rx="2" fill="#FE6674"/>
<rect x="69" y="11" width="18" height="4" rx="2" fill="#BD82DA"/>
<rect x="55" y="19" width="14" height="4" rx="2" fill="#BD82DA"/>
<rect x="109" y="19" width="13" height="4" rx="2" fill="#BD82DA"/>
<rect x="58" y="27" width="16" height="4" rx="2" fill="#BD82DA"/>
<rect x="58" y="34.5" width="16" height="4" rx="2" fill="#BD82DA"/>
<rect x="64" y="42" width="16" height="4" rx="2" fill="#BD82DA"/>
<rect x="109" y="42" width="23" height="4" rx="2" fill="#BD82DA"/>
<rect x="90" y="11" width="23" height="4" rx="2" fill="#BD82DA"/>
<rect x="116" y="11" width="14" height="4" rx="2" fill="#BD82DA"/>
<rect x="134" y="11" width="16" height="4" rx="2" fill="#BD82DA"/>
<rect x="153" y="11" width="18" height="4" rx="2" fill="#BD82DA"/>
<rect x="174" y="11" width="22" height="4" rx="2" fill="#BD82DA"/>
<rect x="202" y="11" width="33" height="4" rx="2" fill="#B8EB80"/>
<rect x="130" y="19" width="47" height="4" rx="2" fill="#B8EB80"/>
<rect x="73" y="19" width="31" height="4" rx="2" fill="#B8EB80"/>
<rect x="78" y="27" width="26" height="4" rx="2" fill="#B8EB80"/>
<rect x="78" y="34.5" width="16" height="4" rx="2" fill="#B8EB80"/>
<rect x="83" y="42" width="22" height="4" rx="2" fill="#B8EB80"/>
<rect x="113" y="49.5" width="27" height="4" rx="2" fill="#B8EB80"/>
<rect x="151" y="49.5" width="35" height="4" rx="2" fill="#B8EB80"/>
<rect x="40" y="19" width="12" height="4" rx="2" fill="#FE6674"/>
<rect x="40" y="27" width="15" height="4" rx="2" fill="#FE6674"/>
<rect x="174" y="27" width="20" height="4" rx="2" fill="#FE6674"/>
<rect x="40" y="34.5" width="15" height="4" rx="2" fill="#FE6674"/>
<rect x="164" y="42" width="13" height="4" rx="2" fill="#FE6674"/>
<rect x="106" y="34.5" width="13" height="4" rx="2" fill="#FE6674"/>
<rect x="115" y="27" width="13" height="4" rx="2" fill="#FE6674"/>
<rect x="131" y="27" width="37" height="4" rx="2" fill="white"/>
<rect x="122" y="34.5" width="30" height="4" rx="2" fill="white"/>
<rect x="73" y="49.5" width="32" height="4" rx="2" fill="white"/>
<rect x="179" y="42" width="13" height="4" rx="2" fill="white"/>
<rect x="136" y="42" width="25" height="4" rx="2" fill="#7AA9FF"/>
<rect x="143" y="49.5" width="5" height="4" rx="2" fill="white"/>
<rect x="57" y="49.5" width="13" height="4" rx="2" fill="#FE6674"/>
<rect x="156" y="34.5" width="21" height="4" rx="2" fill="#FE6674"/>
<rect x="40" y="42" width="21" height="4" rx="2" fill="#FE6674"/>
<rect x="41" y="57" width="26" height="4" rx="2" fill="#FE6674"/>
<rect x="29" y="65" width="43" height="4" rx="2" fill="#FE6674"/>
<defs>
<filter id="filter0_d" x="0" y="0" width="324" height="195" filterUnits="userSpaceOnUse" color-interpolation-filters="sRGB">
<feFlood flood-opacity="0" result="BackgroundImageFix"/>
<feColorMatrix in="SourceAlpha" type="matrix" values="0 0 0 0 0 0 0 0 0 0 0 0 0 0 0 0 0 0 127 0" result="hardAlpha"/>
<feMorphology radius="2" operator="erode" in="SourceAlpha" result="effect1_dropShadow"/>
<feOffset dy="4"/>
<feGaussianBlur stdDeviation="4"/>
<feColorMatrix type="matrix" values="0 0 0 0 0 0 0 0 0 0.165909 0 0 0 0 0.304167 0 0 0 0.25 0"/>
<feBlend mode="normal" in2="BackgroundImageFix" result="effect1_dropShadow"/>
<feBlend mode="normal" in="SourceGraphic" in2="effect1_dropShadow" result="shape"/>
</filter>
</defs>
</svg>
